<svg width="254" height="92" viewBox="0 0 254 92" fill="none" xmlns="http://www.w3.org/2000/svg">
<path fill-rule="evenodd" clip-rule="evenodd" d="M18.9896 59.4479V82.8802H26.5833V65.026L18.9896 59.4479Z" fill="#23253D"/>
<path fill-rule="evenodd" clip-rule="evenodd" d="M52.9219 39.5677L55.5417 41.1771V31.3438L52.9219 32.9636V39.5677Z" fill="#23253D"/>
<path fill-rule="evenodd" clip-rule="evenodd" d="M57.2448 30.2969V42.224L59.8646 43.8385V28.6771L57.2448 30.2969Z" fill="#23253D"/>
<path fill-rule="evenodd" clip-rule="evenodd" d="M61.5625 27.6302V44.8802L64.1823 46.4948V26.0104L61.5625 27.6302Z" fill="#23253D"/>
<path fill-rule="evenodd" clip-rule="evenodd" d="M22.25 59.599V8.54688L19.6406 10.1719V57.724L22.25 59.599Z" fill="#23253D"/>
<path fill-rule="evenodd" clip-rule="evenodd" d="M23.9531 7.50521V60.8073L26.5833 62.6979V5.8698L23.9531 7.50521Z" fill="#23253D"/>
<path fill-rule="evenodd" clip-rule="evenodd" d="M28.2708 4.83854V82.8802H30.8958V3.20312L28.2708 4.83854Z" fill="#23253D"/>
<path fill-rule="evenodd" clip-rule="evenodd" d="M32.5833 2.16145V82.8802H35.2031V0.536453L32.5833 2.16145Z" fill="#23253D"/>
<path fill-rule="evenodd" clip-rule="evenodd" d="M36.8958 0V82.8802H39.5104V1.625L36.8958 0Z" fill="#23253D"/>
<path fill-rule="evenodd" clip-rule="evenodd" d="M41.2135 2.66667V45.2396L43.8438 43.3594V4.30209L41.2135 2.66667Z" fill="#23253D"/>
<path fill-rule="evenodd" clip-rule="evenodd" d="M45.5313 5.35417V42.1563L48.1511 40.2656V6.97917L45.5313 5.35417Z" fill="#23253D"/>
<path fill-rule="evenodd" clip-rule="evenodd" d="M17.0938 59.4323L9.85417 63.6406V67.2188L17.0938 63.0052V59.4323Z" fill="#23253D"/>
<path fill-rule="evenodd" clip-rule="evenodd" d="M17.0938 66.5938L9.85417 70.7865V74.375L17.0938 70.1563V66.5938Z" fill="#23253D"/>
<path fill-rule="evenodd" clip-rule="evenodd" d="M17.0938 73.7396L9.85417 77.9479V81.526L17.0938 77.3177V73.7396Z" fill="#23253D"/>
<path fill-rule="evenodd" clip-rule="evenodd" d="M17.0938 80.8906L13.6927 82.8802H17.0938V80.8906Z" fill="#23253D"/>
<path fill-rule="evenodd" clip-rule="evenodd" d="M50.9219 40.9531L41.2135 47.8698V82.8802H50.9219V40.9531Z" fill="#23253D"/>
<path fill-rule="evenodd" clip-rule="evenodd" d="M52.9219 46.5469L64.4792 53.6615V49.776L52.9219 42.6667V46.5469Z" fill="#23253D"/>
<path fill-rule="evenodd" clip-rule="evenodd" d="M64.4792 57.5313L52.9219 50.4219V54.3021L64.4792 61.4167V57.5313Z" fill="#23253D"/>
<path fill-rule="evenodd" clip-rule="evenodd" d="M64.4792 65.2969L52.9219 58.1771V62.0469L64.4792 69.1615V65.2969Z" fill="#23253D"/>
<path fill-rule="evenodd" clip-rule="evenodd" d="M64.4792 73.0417L52.9219 65.9219V69.7917L64.4792 76.9115V73.0417Z" fill="#23253D"/>
<path fill-rule="evenodd" clip-rule="evenodd" d="M64.4792 80.7865L52.9219 73.6771V77.5625L61.5625 82.8802H64.4792V80.7865Z" fill="#23253D"/>
<path fill-rule="evenodd" clip-rule="evenodd" d="M55.2552 82.8802L52.9219 81.4323V82.8802H55.2552Z" fill="#23253D"/>
<path fill-rule="evenodd" clip-rule="evenodd" d="M77.125 82.8802V35.3698L65.7083 26.9948V82.8802H77.125Z" fill="#23253D"/>
<path fill-rule="evenodd" clip-rule="evenodd" d="M3.61459 85.3281H83.3646V87.1927H3.61459V85.3281Z" fill="#23253D"/>
<path d="M0 88.9271H87V91.4792H0V88.9271Z" fill="#23253D"/>
<path fill-rule="evenodd" clip-rule="evenodd" d="M0 89.1615H86.9896V91.0156H0V89.1615Z" fill="#23253D"/>
<path d="M88.1796 48.563L97.8463 30.8338H103.013L112.659 48.563H108.221L106.075 44.6463H94.7838L92.6171 48.563H88.1796ZM96.3254 41.5422H104.534L100.43 34.1047L96.3254 41.5422Z" fill="#23253D"/>
<path d="M117.488 48.563V42.7297L107.175 30.8338H112.133L119.488 39.3338L126.883 30.8338H131.8L121.488 42.7297V48.563H117.488Z" fill="#23253D"/>
<path d="M133.053 48.563V30.8338H145.865C147.032 30.8338 148.126 31.0161 149.157 31.3755C150.199 31.7401 151.12 32.2869 151.928 33.0213C152.73 33.7453 153.365 34.6619 153.824 35.7713C154.292 36.8859 154.532 38.188 154.532 39.688C154.532 41.2036 154.292 42.5161 153.824 43.6255C153.365 44.7401 152.73 45.6619 151.928 46.3963C151.12 47.1203 150.199 47.6619 149.157 48.0213C148.126 48.3859 147.032 48.563 145.865 48.563H133.053ZM137.053 45.188H144.199C145.532 45.188 146.667 45.0526 147.615 44.7713C148.558 44.4953 149.282 43.9588 149.782 43.1672C150.282 42.3755 150.532 41.2192 150.532 39.688C150.532 38.1619 150.282 37.0109 149.782 36.2297C149.282 35.438 148.558 34.9067 147.615 34.6255C146.667 34.3494 145.532 34.2088 144.199 34.2088H137.053V45.188Z" fill="#23253D"/>
<path d="M156.38 48.563V30.8338H160.38V48.563H156.38Z" fill="#23253D"/>
<path d="M162.687 48.563V30.8338H168.228L181.52 44.4588V30.8338H185.52V48.563H179.999L166.687 34.938V48.563H162.687Z" fill="#23253D"/>
<path d="M187.837 48.563V30.8338H191.837V45.188H206.067V48.563H187.837Z" fill="#23253D"/>
<path d="M207.475 48.563L217.141 30.8338H222.308L231.954 48.563H227.516L225.37 44.6463H214.079L211.912 48.563H207.475ZM215.62 41.5422H223.829L219.725 34.1047L215.62 41.5422Z" fill="#23253D"/>
<path d="M233.2 48.563V30.8338H247.117C248.476 30.8338 249.664 31.0942 250.679 31.6047C251.69 32.1203 252.481 32.8651 253.054 33.8338C253.622 34.7922 253.908 35.9276 253.908 37.2297C253.908 38.7192 253.544 39.9744 252.825 41.0005C252.101 42.0317 251.117 42.7609 249.867 43.188L253.179 48.563H248.471L245.471 43.6672H237.2V48.563H233.2ZM237.2 40.313H245.867C246.252 40.313 246.679 40.3026 247.138 40.2713C247.596 40.2297 248.033 40.1203 248.45 39.938C248.877 39.7453 249.226 39.438 249.492 39.0213C249.768 38.5942 249.908 37.9953 249.908 37.2297C249.908 36.4797 249.768 35.8963 249.492 35.4797C249.226 35.063 248.877 34.7661 248.45 34.5838C248.033 34.3911 247.596 34.2817 247.138 34.2505C246.679 34.2244 246.252 34.2088 245.867 34.2088H237.2V40.313Z" fill="#23253D"/>
<path d="M110.185 63.1463V59.6672H114.789V63.1463H110.185ZM110.497 83.563V65.8338H114.497V83.563H110.497Z" fill="#23253D"/>
<path d="M116.804 83.563V65.8338H122.346L135.637 79.4588V65.8338H139.637V83.563H134.117L120.804 69.938V83.563H116.804Z" fill="#23253D"/>
<path d="M150.262 89.3963V87.2713C151.913 87.5057 153.127 87.5213 153.908 87.313C154.7 87.1047 155.096 86.7557 155.096 86.2713C155.096 85.964 154.898 85.7713 154.512 85.688C154.137 85.6047 153.45 85.6776 152.45 85.9172L150.971 84.4588L151.2 83.7922C149.127 83.7088 147.356 83.4744 145.887 83.0838C144.413 82.6828 143.283 82.0369 142.492 81.1463C141.7 80.2453 141.304 79.0213 141.304 77.4797H145.325C145.325 78.188 145.554 78.7817 146.012 79.2505C146.471 79.7088 147.273 80.0526 148.429 80.2713C149.596 80.4953 151.205 80.6047 153.262 80.6047C154.939 80.6047 156.268 80.5317 157.242 80.3755C158.21 80.2244 158.908 79.9901 159.325 79.6672C159.742 79.3495 159.95 78.9276 159.95 78.3963C159.95 77.9797 159.856 77.6411 159.679 77.3755C159.497 77.1151 159.143 76.9067 158.617 76.7505C158.085 76.5994 157.346 76.4797 156.387 76.3963C155.439 76.3026 154.189 76.2036 152.637 76.1047C150.106 75.9797 148.054 75.7453 146.471 75.3963C144.898 75.0369 143.752 74.4744 143.033 73.7088C142.309 72.9484 141.95 71.9067 141.95 70.5838C141.95 69.2922 142.372 68.2869 143.221 67.563C144.08 66.8286 145.294 66.313 146.867 66.0213C148.434 65.7297 150.309 65.5838 152.492 65.5838C154.7 65.5838 156.601 65.7869 158.2 66.188C159.809 66.5786 161.044 67.2192 161.908 68.1047C162.768 68.9797 163.2 70.1463 163.2 71.6047H159.2C159.2 70.8703 158.95 70.3026 158.45 69.8963C157.96 69.4797 157.189 69.1984 156.137 69.0422C155.08 68.8755 153.689 68.7922 151.971 68.7922C150.372 68.7922 149.127 68.8547 148.242 68.9797C147.367 69.1047 146.762 69.3234 146.429 69.6255C146.106 69.9172 145.95 70.3078 145.95 70.7922C145.95 71.1828 146.038 71.5109 146.221 71.7713C146.413 72.0213 146.747 72.2244 147.221 72.3755C147.705 72.5161 148.387 72.6411 149.262 72.7505C150.137 72.8494 151.262 72.938 152.637 73.0213C154.387 73.1203 155.955 73.2453 157.346 73.3963C158.747 73.5369 159.934 73.7817 160.908 74.1255C161.893 74.4588 162.648 74.9536 163.179 75.6047C163.705 76.2453 163.971 77.1255 163.971 78.2505C163.971 79.3651 163.726 80.2713 163.242 80.9797C162.752 81.688 162.064 82.2453 161.179 82.6463C160.304 83.0526 159.262 83.3442 158.054 83.5213C156.846 83.688 155.512 83.7817 154.054 83.813L153.783 84.7505C154.169 84.6359 154.617 84.5474 155.117 84.4797C155.627 84.4224 156.122 84.438 156.596 84.5213C157.064 84.6047 157.46 84.7974 157.783 85.1047C158.101 85.4224 158.262 85.8859 158.262 86.5005C158.262 87.2192 158.023 87.8026 157.554 88.2505C157.096 88.6932 156.476 89.0109 155.7 89.2088C154.934 89.4172 154.08 89.5265 153.137 89.5422C152.189 89.5526 151.231 89.5057 150.262 89.3963Z" fill="#23253D"/>
<path d="M163.846 83.563L173.513 65.8338H178.679L188.325 83.563H183.888L181.742 79.6463H170.45L168.283 83.563H163.846ZM171.992 76.5422H180.2L176.096 69.1047L171.992 76.5422Z" fill="#23253D"/>
<path d="M189.554 83.563L199.221 65.8338H204.387L214.033 83.563H209.596L207.45 79.6463H196.158L193.991 83.563H189.554ZM197.7 76.5422H205.908L201.804 69.1047L197.7 76.5422Z" fill="#23253D"/>
<path d="M218.94 83.563V69.2088H210.044V65.8338H231.836V69.2088H222.94V83.563H218.94Z" fill="#23253D"/>
</svg>
